<!DOCTYPE svg PUBLIC "-//W3C//DTD SVG 1.1//EN" "http://www.w3.org/Graphics/SVG/1.1/DTD/svg11.dtd">
<!-- Uploaded to: SVG Repo, www.svgrepo.com, Transformed by: SVG Repo Mixer Tools -->
<svg fill="#ffffff" width="800px" height="800px" viewBox="0 0 512 512" xmlns="http://www.w3.org/2000/svg" stroke="#ffffff">
<g id="SVGRepo_bgCarrier" stroke-width="0"/>
<g id="SVGRepo_tracerCarrier" stroke-linecap="round" stroke-linejoin="round"/>
<g id="SVGRepo_iconCarrier"> <g id="School"> <path d="M330.3835,61.313H269.125V52.562a13.125,13.125,0,0,0-26.25,0V188.16L168.4744,262.563v210H212.66V407.7477c0-24.7034,20.23-46.3092,44.9206-45.4056a43.2983,43.2983,0,0,1,41.7035,43.2843V472.563h44.19v-210L269.125,188.2158V131.313h61.2585A13.1167,13.1167,0,0,0,343.5,118.1987v-43.77A13.1177,13.1177,0,0,0,330.3835,61.313ZM294.0078,282.729c6.3489,50.6629-66.4667,62.0479-76.0669,12.1659C211.5942,244.2342,284.399,232.8523,294.0078,282.729Z"/> <rect height="131.25" width="78.75" x="369.75" y="341.313"/> <path d="M466,315.063l-17.5-78.75H354.3734c7.3551,6.8637,16,15.3275,15.3745,26.25l.0021,52.5Z"/> <rect height="131.25" width="78.75" x="63.5" y="341.313"/> <path d="M46,315.063h96.25v-52.5c-.63-10.9076,8.03-19.4055,15.3766-26.25H63.5Z"/> </g> </g>
</svg>